name rise30.9205peak61.366fall85.3838.mot
datacolumns 19
datarows 15
range 2.28833200000000 2.31166400000000
endheader
time	ground_force1_vx	ground_force1_vy	ground_force1_vz	ground_force1_px	ground_force1_py	ground_force1_pz	ground_force2_vx	ground_force2_vy	ground_force2_vz	ground_force2_px	ground_force2_py	ground_force2_pz	ground_torque1_x	ground_torque1_y	ground_torque1_z	ground_torque2_x	ground_torque2_y	ground_torque2_z	
2.28833200000000	14.86426400000000	680.25259400000004	39.78421900000000	0.24793200000000	0.00000000000000	0.11991900000000	0.00000000000000	0.00000000000000	0.00000000000000	0.00000000000000	0.00000000000000	0.00000000000000	0.00000000000000	17.42877400000000	0.00000000000000	0.00000000000000	0.00000000000000	0.00000000000000	
2.28999000000000	14.37685000000000	681.29726500000004	39.84464400000000	0.24711800000000	0.00000000000000	0.11993100000000	0.00000000000000	0.00000000000000	0.00000000000000	0.00000000000000	0.00000000000000	0.00000000000000	0.00000000000000	17.56442700000000	0.00000000000000	0.00000000000000	0.00000000000000	0.00000000000000	
2.29165500000000	13.87698600000000	682.41049099999998	39.90632600000000	0.24628100000000	0.00000000000000	0.11994400000000	0.00000000000000	0.00000000000000	0.00000000000000	0.00000000000000	0.00000000000000	0.00000000000000	0.00000000000000	17.70297700000000	0.00000000000000	0.00000000000000	0.00000000000000	0.00000000000000	
2.29332500000000	13.36452600000000	683.59252700000002	39.96923800000000	0.24542000000000	0.00000000000000	0.11995700000000	0.00000000000000	0.00000000000000	0.00000000000000	0.00000000000000	0.00000000000000	0.00000000000000	0.00000000000000	17.84433600000000	0.00000000000000	0.00000000000000	0.00000000000000	0.00000000000000	
2.29499100000000	12.83936400000000	684.84362199999998	40.03337600000000	0.24453400000000	0.00000000000000	0.11997100000000	0.00000000000000	0.00000000000000	0.00000000000000	0.00000000000000	0.00000000000000	0.00000000000000	0.00000000000000	17.98842000000000	0.00000000000000	0.00000000000000	0.00000000000000	0.00000000000000	
2.29666300000000	12.30143800000000	686.16400899999996	40.09875400000000	0.24362400000000	0.00000000000000	0.11998500000000	0.00000000000000	0.00000000000000	0.00000000000000	0.00000000000000	0.00000000000000	0.00000000000000	0.00000000000000	18.13515100000000	0.00000000000000	0.00000000000000	0.00000000000000	0.00000000000000	
2.29832700000000	11.75072900000000	687.55390399999999	40.16540900000000	0.24268800000000	0.00000000000000	0.12000000000000	0.00000000000000	0.00000000000000	0.00000000000000	0.00000000000000	0.00000000000000	0.00000000000000	0.00000000000000	18.28445000000000	0.00000000000000	0.00000000000000	0.00000000000000	0.00000000000000	
2.29999100000000	11.18726000000000	689.01349600000003	40.23340000000000	0.24172700000000	0.00000000000000	0.12001600000000	0.00000000000000	0.00000000000000	0.00000000000000	0.00000000000000	0.00000000000000	0.00000000000000	0.00000000000000	18.43624300000000	0.00000000000000	0.00000000000000	0.00000000000000	0.00000000000000	
2.30165500000000	10.61110300000000	690.54294000000004	40.30280300000000	0.24074100000000	0.00000000000000	0.12003200000000	0.00000000000000	0.00000000000000	0.00000000000000	0.00000000000000	0.00000000000000	0.00000000000000	0.00000000000000	18.59045800000000	0.00000000000000	0.00000000000000	0.00000000000000	0.00000000000000	
2.30332800000000	10.02236900000000	692.14235299999996	40.37371800000000	0.23973000000000	0.00000000000000	0.12004800000000	0.00000000000000	0.00000000000000	0.00000000000000	0.00000000000000	0.00000000000000	0.00000000000000	0.00000000000000	18.74702400000000	0.00000000000000	0.00000000000000	0.00000000000000	0.00000000000000	
2.30499000000000	9.42121800000000	693.81180400000005	40.44626100000000	0.23869400000000	0.00000000000000	0.12006500000000	0.00000000000000	0.00000000000000	0.00000000000000	0.00000000000000	0.00000000000000	0.00000000000000	0.00000000000000	18.90587100000000	0.00000000000000	0.00000000000000	0.00000000000000	0.00000000000000	
2.30666000000000	8.80785100000000	695.55130899999995	40.52057000000000	0.23763400000000	0.00000000000000	0.12008200000000	0.00000000000000	0.00000000000000	0.00000000000000	0.00000000000000	0.00000000000000	0.00000000000000	0.00000000000000	19.06693100000000	0.00000000000000	0.00000000000000	0.00000000000000	0.00000000000000	
2.30832200000000	8.18251300000000	697.36081999999999	40.59680000000000	0.23655100000000	0.00000000000000	0.12010000000000	0.00000000000000	0.00000000000000	0.00000000000000	0.00000000000000	0.00000000000000	0.00000000000000	0.00000000000000	19.23013400000000	0.00000000000000	0.00000000000000	0.00000000000000	0.00000000000000	
2.30999400000000	7.54549300000000	699.24022200000002	40.67512400000000	0.23544400000000	0.00000000000000	0.12011800000000	0.00000000000000	0.00000000000000	0.00000000000000	0.00000000000000	0.00000000000000	0.00000000000000	0.00000000000000	19.39541100000000	0.00000000000000	0.00000000000000	0.00000000000000	0.00000000000000	
2.31166400000000	6.89712100000000	701.18932500000005	40.75573000000000	0.23431600000000	0.00000000000000	0.12013700000000	0.00000000000000	0.00000000000000	0.00000000000000	0.00000000000000	0.00000000000000	0.00000000000000	0.00000000000000	19.56269100000000	0.00000000000000	0.00000000000000	0.00000000000000	0.00000000000000	
